P2       # Format PPM ASCII
48 44    # Largeur et Hauteur
5        # Intensite maximum

5 5 5 5 5 5 5 5 5 5 5 5 5 5 5 5 5 5 5 5 5 5 5 5 5 5 5 5 5 5 5 5 5 5 5 5 5 5 5 5 5 5 5 5 5 5 5 5
5 4 4 4 4 4 4 4 4 4 4 4 4 4 4 4 4 4 4 4 4 4 4 4 4 4 4 4 4 4 4 4 4 4 4 4 4 4 4 4 4 4 4 4 4 4 4 5
5 4 3 3 3 3 3 3 3 3 3 3 3 3 3 3 3 3 3 3 3 3 3 3 3 3 3 3 3 3 3 3 3 3 3 3 3 3 3 3 3 3 3 3 3 3 4 5
5 4 3 2 2 2 2 2 2 2 2 2 2 2 2 2 2 2 2 2 2 2 2 2 2 2 2 2 2 2 2 2 2 2 2 2 2 2 2 2 2 2 2 2 2 3 4 5
5 4 3 2 1 1 1 1 1 1 1 1 1 1 1 1 1 1 1 1 1 1 1 1 1 1 1 1 1 1 1 1 1 1 1 1 1 1 1 1 1 1 1 1 2 3 4 5
5 4 3 2 1 0 0 0 0 0 0 0 0 0 0 0 0 0 0 0 0 0 0 0 0 0 0 0 0 0 0 0 0 0 0 0 0 0 0 0 0 0 0 1 2 3 4 5
5 4 3 2 1 0 0 0 0 0 0 0 0 0 0 0 0 0 0 0 0 0 0 0 0 0 0 0 0 0 0 0 0 0 0 0 0 0 0 0 0 0 0 1 2 3 4 5
5 4 3 2 1 0 0 0 0 5 5 5 5 5 5 0 0 0 0 5 5 0 0 0 0 0 0 5 5 0 0 5 5 5 5 5 5 5 5 5 5 0 0 1 2 3 4 5
5 4 3 2 1 0 0 0 0 5 5 5 5 5 5 0 0 0 0 5 5 0 0 0 0 0 0 5 5 0 0 5 5 5 5 5 5 5 5 5 5 0 0 1 2 3 4 5
5 4 3 2 1 0 0 0 0 0 0 5 5 0 0 0 0 0 0 5 5 0 0 0 0 0 0 5 5 0 0 0 0 0 0 5 5 0 0 0 0 0 0 1 2 3 4 5
5 4 3 2 1 0 0 0 0 0 0 5 5 0 0 0 0 0 0 5 5 0 0 0 0 0 0 5 5 0 0 0 0 0 0 5 5 0 0 0 0 0 0 1 2 3 4 5
5 4 3 2 1 0 0 0 0 0 0 5 5 0 0 0 0 0 0 5 5 0 0 0 0 0 0 5 5 0 0 0 0 0 0 5 5 0 0 0 0 0 0 1 2 3 4 5
5 4 3 2 1 0 0 0 0 0 0 5 5 0 0 0 0 0 0 5 5 0 0 0 0 0 0 5 5 0 0 0 0 0 0 5 5 0 0 0 0 0 0 1 2 3 4 5
5 4 3 2 1 0 0 0 0 0 0 5 5 0 0 0 0 0 0 5 5 0 0 0 0 0 0 5 5 0 0 0 0 0 0 5 5 0 0 0 0 0 0 1 2 3 4 5
5 4 3 2 1 0 0 0 0 0 0 5 5 0 0 0 0 0 0 5 5 0 0 0 0 0 0 5 5 0 0 0 0 0 0 5 5 0 0 0 0 0 0 1 2 3 4 5
5 4 3 2 1 0 0 0 0 0 0 5 5 0 0 0 0 0 0 5 5 0 0 0 0 0 0 5 5 0 0 0 0 0 0 5 5 0 0 0 0 0 0 1 2 3 4 5
5 4 3 2 1 0 0 0 0 0 0 5 5 0 0 0 0 0 0 5 5 0 0 0 0 0 0 5 5 0 0 0 0 0 0 5 5 0 0 0 0 0 0 1 2 3 4 5
5 4 3 2 1 0 0 0 0 0 0 5 5 0 0 0 0 0 0 5 5 0 0 0 0 0 0 5 5 0 0 0 0 0 0 5 5 0 0 0 0 0 0 1 2 3 4 5
5 4 3 2 1 0 0 0 0 0 0 5 5 0 0 0 0 0 0 5 5 0 0 0 0 0 0 5 5 0 0 0 0 0 0 5 5 0 0 0 0 0 0 1 2 3 4 5
5 4 3 2 1 0 0 0 0 5 5 5 5 5 5 0 0 0 0 0 0 5 5 5 5 5 5 0 0 0 0 0 0 0 0 5 5 0 0 0 0 0 0 1 2 3 4 5
5 4 3 2 1 0 0 0 0 5 5 5 5 5 5 0 0 0 0 0 0 5 5 5 5 5 5 0 0 0 0 0 0 0 0 5 5 0 0 0 0 0 0 1 2 3 4 5
5 4 3 2 1 0 0 0 0 0 0 0 0 0 0 0 0 0 0 0 0 0 0 0 0 0 0 0 0 0 0 0 0 0 0 0 0 0 0 0 0 0 0 1 2 3 4 5
5 4 3 2 1 0 0 0 0 0 0 0 0 0 0 0 0 0 0 0 0 0 0 0 0 0 0 0 0 0 0 0 0 0 0 0 0 0 0 0 0 0 0 1 2 3 4 5
5 4 3 2 1 0 0 0 0 5 5 5 5 5 5 0 0 0 0 5 5 5 5 5 5 5 5 5 5 0 0 0 0 0 0 0 0 0 0 0 0 0 0 1 2 3 4 5
5 4 3 2 1 0 0 0 0 5 5 5 5 5 5 0 0 0 0 5 5 5 5 5 5 5 5 5 5 0 0 0 0 0 0 0 0 0 0 0 0 0 0 1 2 3 4 5
5 4 3 2 1 0 0 5 5 0 0 0 0 0 0 5 5 0 0 5 5 0 0 0 0 0 0 0 0 0 0 0 0 5 5 0 0 5 5 0 0 0 0 1 2 3 4 5
5 4 3 2 1 0 0 5 5 0 0 0 0 0 0 5 5 0 0 5 5 0 0 0 0 0 0 0 0 0 0 0 0 5 5 0 0 5 5 0 0 0 0 1 2 3 4 5
5 4 3 2 1 0 0 5 5 0 0 0 0 0 0 0 0 0 0 5 5 0 0 0 0 0 0 0 0 0 0 5 5 0 0 5 5 0 0 5 5 0 0 1 2 3 4 5
5 4 3 2 1 0 0 5 5 0 0 0 0 0 0 0 0 0 0 5 5 0 0 0 0 0 0 0 0 0 0 5 5 0 0 5 5 0 0 5 5 0 0 1 2 3 4 5
5 4 3 2 1 0 0 0 0 5 5 5 5 5 5 0 0 0 0 5 5 5 5 5 5 5 5 0 0 0 0 5 5 0 0 0 0 0 0 5 5 0 0 1 2 3 4 5
5 4 3 2 1 0 0 0 0 5 5 5 5 5 5 0 0 0 0 5 5 5 5 5 5 5 5 0 0 0 0 5 5 0 0 0 0 0 0 5 5 0 0 1 2 3 4 5
5 4 3 2 1 0 0 0 0 0 0 0 0 0 0 5 5 0 0 5 5 0 0 0 0 0 0 0 0 0 0 0 0 5 5 0 0 5 5 0 0 0 0 1 2 3 4 5
5 4 3 2 1 0 0 0 0 0 0 0 0 0 0 5 5 0 0 5 5 0 0 0 0 0 0 0 0 0 0 0 0 5 5 0 0 5 5 0 0 0 0 1 2 3 4 5
5 4 3 2 1 0 0 5 5 0 0 0 0 0 0 5 5 0 0 5 5 0 0 0 0 0 0 0 0 0 0 0 0 0 0 5 5 0 0 0 0 0 0 1 2 3 4 5
5 4 3 2 1 0 0 5 5 0 0 0 0 0 0 5 5 0 0 5 5 0 0 0 0 0 0 0 0 0 0 0 0 0 0 5 5 0 0 0 0 0 0 1 2 3 4 5
5 4 3 2 1 0 0 0 0 5 5 5 5 5 5 0 0 0 0 5 5 0 0 0 0 0 0 0 0 0 0 0 0 0 0 0 0 0 0 0 0 0 0 1 2 3 4 5
5 4 3 2 1 0 0 0 0 5 5 5 5 5 5 0 0 0 0 5 5 0 0 0 0 0 0 0 0 0 0 0 0 0 0 0 0 0 0 0 0 0 0 1 2 3 4 5
5 4 3 2 1 0 0 0 0 0 0 0 0 0 0 0 0 0 0 0 0 0 0 0 0 0 0 0 0 0 0 0 0 0 0 0 0 0 0 0 0 0 0 1 2 3 4 5
5 4 3 2 1 0 0 0 0 0 0 0 0 0 0 0 0 0 0 0 0 0 0 0 0 0 0 0 0 0 0 0 0 0 0 0 0 0 0 0 0 0 0 1 2 3 4 5
5 4 3 2 1 1 1 1 1 1 1 1 1 1 1 1 1 1 1 1 1 1 1 1 1 1 1 1 1 1 1 1 1 1 1 1 1 1 1 1 1 1 1 1 2 3 4 5
5 4 3 2 2 2 2 2 2 2 2 2 2 2 2 2 2 2 2 2 2 2 2 2 2 2 2 2 2 2 2 2 2 2 2 2 2 2 2 2 2 2 2 2 2 3 4 5
5 4 3 3 3 3 3 3 3 3 3 3 3 3 3 3 3 3 3 3 3 3 3 3 3 3 3 3 3 3 3 3 3 3 3 3 3 3 3 3 3 3 3 3 3 3 4 5
5 4 4 4 4 4 4 4 4 4 4 4 4 4 4 4 4 4 4 4 4 4 4 4 4 4 4 4 4 4 4 4 4 4 4 4 4 4 4 4 4 4 4 4 4 4 4 5
5 5 5 5 5 5 5 5 5 5 5 5 5 5 5 5 5 5 5 5 5 5 5 5 5 5 5 5 5 5 5 5 5 5 5 5 5 5 5 5 5 5 5 5 5 5 5 5

